<?xml version="1.0" encoding="utf-8"?>
<!-- Generator: Adobe Illustrator 17.0.0, SVG Export Plug-In . SVG Version: 6.00 Build 0)  -->
<!DOCTYPE svg PUBLIC "-//W3C//DTD SVG 1.1//EN" "http://www.w3.org/Graphics/SVG/1.1/DTD/svg11.dtd">
<svg version="1.1" id="Layer_1" xmlns="http://www.w3.org/2000/svg" xmlns:xlink="http://www.w3.org/1999/xlink" x="0px" y="0px"
	 width="250px" height="93px" viewBox="0 0 250 93" enable-background="new 0 0 250 93" xml:space="preserve">
<g>
	<path fill="#E71800" d="M0,21.785v-2.091h14.715v2.091H8.403v52.201h6.312v2.091H0v-2.091h6.312V21.785H0z"/>
	<path fill="#E71800" d="M23.274,55.089c0-6.635,1.394-11.908,4.182-15.819s6.661-5.867,11.617-5.867
		c3.305,0,6.151,0.762,8.539,2.285c2.387,1.524,4.279,3.601,5.673,6.235l0.31-7.745h1.781v41.358c0,5.369-1.413,9.623-4.24,12.76
		C48.309,91.432,44.443,93,39.538,93c-2.04,0-4.163-0.213-6.37-0.639s-4.138-1.013-5.789-1.762l0.62-2.091
		c1.884,0.826,3.704,1.439,5.46,1.839c1.756,0.4,3.756,0.6,6.002,0.6c4.466,0,7.88-1.375,10.243-4.124
		c2.362-2.749,3.543-6.512,3.543-11.288v-6.08c-1.394,2.272-3.298,4.08-5.712,5.421c-2.414,1.342-5.261,2.014-8.539,2.014
		c-4.931,0-8.785-1.884-11.559-5.654c-2.775-3.769-4.163-8.881-4.163-15.335V55.089z M25.403,55.902
		c0,5.783,1.148,10.378,3.446,13.786c2.298,3.408,5.667,5.112,10.107,5.112c3.718,0,6.77-0.852,9.158-2.556
		c2.387-1.704,4.098-3.989,5.131-6.854V46.375c-0.982-3.072-2.575-5.654-4.783-7.745c-2.207-2.091-5.35-3.137-9.429-3.137
		c-4.44,0-7.822,1.814-10.146,5.441c-2.323,3.627-3.485,8.345-3.485,14.154V55.902z"/>
	<path fill="#E71800" d="M66.529,73.986h6.312V36.268h-6.312v-2.091h8.093l0.271,8.636c1.264-2.995,3.111-5.311,5.538-6.951
		c2.426-1.639,5.421-2.459,8.984-2.459c4.57,0,7.997,1.439,10.281,4.318c2.285,2.879,3.427,7.442,3.427,13.689v22.577h6.312v2.091
		H94.721v-2.091h6.312V51.332c0-5.809-1.04-9.9-3.117-12.276c-2.078-2.375-4.899-3.563-8.461-3.563
		c-4.518,0-7.926,1.349-10.223,4.047c-2.298,2.698-3.731,6.151-4.298,10.359v24.087h6.312v2.091H66.529V73.986z"/>
	<path fill="#E71800" d="M117.646,73.986h6.312V36.268h-6.312v-2.091h8.403v39.809h6.312v2.091h-14.715V73.986z"/>
	<path fill="#E71800" d="M170.776,46.918h-2.091v-6.777c-1.342-1.497-3.053-2.646-5.131-3.446c-2.078-0.8-4.486-1.2-7.222-1.2
		c-3.924,0-6.893,0.846-8.907,2.536c-2.014,1.691-3.021,3.647-3.021,5.867c0,2.194,0.852,4.066,2.556,5.615
		s5.086,2.904,10.146,4.066c4.673,1.084,8.216,2.562,10.63,4.434c2.414,1.872,3.621,4.486,3.621,7.842
		c0,3.279-1.342,5.938-4.027,7.977c-2.685,2.04-6.248,3.059-10.688,3.059c-3.046,0-5.854-0.491-8.423-1.472
		s-4.718-2.336-6.448-4.066v-7.474h2.091v6.312c1.523,1.626,3.408,2.802,5.654,3.524c2.246,0.723,4.621,1.084,7.125,1.084
		c3.872,0,6.945-0.904,9.216-2.711c2.272-1.807,3.408-3.898,3.408-6.273c0-2.22-0.949-4.24-2.846-6.06
		c-1.898-1.82-5.208-3.246-9.933-4.279c-4.931-1.032-8.526-2.407-10.785-4.124c-2.259-1.717-3.388-4.176-3.388-7.377
		c0-2.995,1.265-5.505,3.795-7.532c2.53-2.027,5.938-3.04,10.223-3.04c2.995,0,5.764,0.517,8.306,1.549
		c2.543,1.033,4.589,2.414,6.138,4.144V46.918z"/>
	<path fill="#999999" d="M185.801,76.077h-3.33v-5.034h3.33V76.077z"/>
	<path fill="#999999" d="M208.92,79.524c0,4.311-0.968,7.635-2.904,9.972c-1.936,2.336-4.647,3.505-8.132,3.505
		c-0.774,0-1.497-0.065-2.169-0.194c-0.671-0.13-1.394-0.323-2.169-0.581l0.503-2.014c0.465,0.155,1.052,0.31,1.762,0.465
		c0.71,0.155,1.401,0.232,2.072,0.232c2.84,0,5.041-0.994,6.603-2.982c1.562-1.988,2.343-4.789,2.343-8.403V36.268h-6.312v-2.091
		h8.403V79.524z M208.687,20.856h-2.091v-5.189h2.091V20.856z"/>
	<path fill="#999999" d="M248.535,46.918h-2.091v-6.777c-1.342-1.497-3.053-2.646-5.131-3.446c-2.078-0.8-4.486-1.2-7.222-1.2
		c-3.924,0-6.893,0.846-8.907,2.536c-2.014,1.691-3.021,3.647-3.021,5.867c0,2.194,0.852,4.066,2.556,5.615
		s5.086,2.904,10.146,4.066c4.673,1.084,8.216,2.562,10.63,4.434c2.414,1.872,3.621,4.486,3.621,7.842
		c0,3.279-1.342,5.938-4.027,7.977c-2.685,2.04-6.248,3.059-10.688,3.059c-3.046,0-5.854-0.491-8.423-1.472
		s-4.718-2.336-6.448-4.066v-7.474h2.091v6.312c1.523,1.626,3.408,2.802,5.654,3.524c2.246,0.723,4.621,1.084,7.125,1.084
		c3.872,0,6.945-0.904,9.216-2.711c2.272-1.807,3.408-3.898,3.408-6.273c0-2.22-0.949-4.24-2.846-6.06
		c-1.898-1.82-5.208-3.246-9.933-4.279c-4.931-1.032-8.526-2.407-10.785-4.124c-2.259-1.717-3.388-4.176-3.388-7.377
		c0-2.995,1.265-5.505,3.795-7.532c2.53-2.027,5.938-3.04,10.223-3.04c2.995,0,5.764,0.517,8.306,1.549
		c2.543,1.033,4.589,2.414,6.138,4.144V46.918z"/>
	<g>
		<path fill="#E71800" d="M130.978,12.482l-0.014,0.63c-0.049,0.706-0.23,1.933-0.854,3.315c0.197-0.921,0.301-1.876,0.301-2.857
			c0-0.733-0.058-1.452-0.17-2.153c-0.914-5.748-5.428-10.292-11.153-11.236C118.407,0.017,118.003,0,118.003,0
			c0.014,0.017,0.028,0.034,0.042,0.051c2.39,2.858,2.671,5.854,2.286,7.986c-0.138,0.765-0.362,1.419-0.605,1.914
			c0,0,0.203-0.843,0.184-1.8c-0.018-0.862-0.216-1.817-0.908-2.335c0.212,1.113-0.046,2.029-0.552,2.891
			c-1.498,2.547-5.174,4.46-5.477,9.185v0.232c0,3.252,1.552,5.995,4.162,7.572c-0.415-0.748-0.906-2.132-0.529-3.643
			c0.242,1.434,0.603,2.183,1.265,3.135c0.494,0.71,1.157,1.167,2.004,1.51c0.847,0.343,1.759,0.436,2.782,0.436
			c3.38,0,6.373-1.73,8.107-4.358l0.016,0.004v0c0.969-1.53,1.581-3.361,1.581-5.331C132.361,15.633,131.846,13.935,130.978,12.482z
			"/>
	</g>
</g>
</svg>
