<?xml version="1.0" encoding="utf-8"?>
<!-- Generator: Adobe Illustrator 17.0.0, SVG Export Plug-In . SVG Version: 6.00 Build 0)  -->
<!DOCTYPE svg PUBLIC "-//W3C//DTD SVG 1.1//EN" "http://www.w3.org/Graphics/SVG/1.1/DTD/svg11.dtd">
<svg version="1.1" id="Layer_1" xmlns="http://www.w3.org/2000/svg" xmlns:xlink="http://www.w3.org/1999/xlink" x="0px" y="0px"
	 width="700px" height="262px" viewBox="-225 -84.5 700 262" enable-background="new -225 -84.5 700 262" xml:space="preserve">
<g>
	<path fill="#E71800" d="M-225-23.286v-5.876h41.348v5.876h-17.736v146.681h17.736v5.876H-225v-5.876h17.736V-23.286H-225z"/>
	<path fill="#E71800" d="M-159.602,70.297c0-18.644,3.917-33.461,11.751-44.45S-129.133,9.36-115.207,9.36
		c9.287,0,17.284,2.141,23.994,6.421c6.707,4.282,12.024,10.119,15.941,17.52l0.871-21.763h5.004v116.213
		c0,15.087-3.97,27.04-11.914,35.855c-7.944,8.812-18.807,13.218-32.59,13.218c-5.732,0-11.698-0.599-17.899-1.796
		c-6.202-1.197-11.628-2.846-16.267-4.951l1.742-5.876c5.294,2.321,10.408,4.044,15.342,5.167
		c4.934,1.124,10.554,1.686,16.865,1.686c12.549,0,22.142-3.864,28.782-11.588c6.637-7.725,9.956-18.298,9.956-31.719v-17.084
		c-3.917,6.384-9.267,11.465-16.05,15.233c-6.783,3.771-14.783,5.659-23.994,5.659c-13.856,0-24.685-5.294-32.48-15.887
		c-7.798-10.591-11.698-24.955-11.698-43.09C-159.602,72.578-159.602,70.297-159.602,70.297z M-153.619,72.581
		c0,16.25,3.226,29.162,9.683,38.738c6.457,9.576,15.924,14.364,28.4,14.364c10.447,0,19.023-2.394,25.733-7.182
		c6.707-4.788,11.515-11.209,14.418-19.259V45.811c-2.759-8.632-7.236-15.887-13.44-21.763c-6.202-5.876-15.033-8.815-26.495-8.815
		c-12.476,0-21.979,5.097-28.51,15.289c-6.527,10.192-9.793,23.449-9.793,39.772v2.287H-153.619z"/>
	<path fill="#E71800" d="M-38.058,123.396h17.736V17.411h-17.736v-5.876h22.741l0.762,24.267
		c3.552-8.416,8.742-14.924,15.561-19.532c6.817-4.605,15.233-6.91,25.244-6.91c12.841,0,22.471,4.043,28.889,12.133
		c6.421,8.09,9.63,20.912,9.63,38.465v63.44h17.736v5.876H41.16v-5.876h17.736V59.74c0-16.323-2.922-27.818-8.759-34.495
		c-5.839-6.674-13.766-10.012-23.775-10.012c-12.695,0-22.272,3.791-28.726,11.372C-8.82,34.186-12.847,43.889-14.44,55.713v67.683
		H3.296v5.876h-41.354V123.396z"/>
	<path fill="#E71800" d="M105.578,123.396h17.736V17.411h-17.736v-5.876h23.612v111.861h17.736v5.876h-41.348
		C105.578,129.271,105.578,123.396,105.578,123.396z"/>
	<path fill="#E71800" d="M254.87,47.337h-5.876V28.294c-3.771-4.206-8.579-7.435-14.418-9.683
		c-5.839-2.248-12.605-3.372-20.293-3.372c-11.026,0-19.369,2.377-25.028,7.126c-5.659,4.752-8.489,10.248-8.489,16.486
		c0,6.165,2.394,11.425,7.182,15.778s14.291,8.16,28.51,11.425c13.131,3.046,23.086,7.199,29.87,12.459s10.175,12.605,10.175,22.036
		c0,9.214-3.771,16.685-11.316,22.415c-7.545,5.732-17.556,8.596-30.033,8.596c-8.559,0-16.449-1.38-23.668-4.136
		c-7.219-2.757-13.257-6.564-18.118-11.425V94.996h5.876v17.736c4.28,4.569,9.576,7.873,15.887,9.902
		c6.311,2.032,12.985,3.046,20.021,3.046c10.88,0,19.515-2.54,25.896-7.618c6.384-5.078,9.576-10.953,9.576-17.627
		c0-6.238-2.667-11.914-7.997-17.028c-5.333-5.114-14.634-9.121-27.911-12.024c-13.856-2.9-23.958-6.764-30.305-11.588
		s-9.52-11.734-9.52-20.729c0-8.416,3.555-15.469,10.664-21.164c7.109-5.696,16.685-8.542,28.726-8.542
		c8.416,0,16.197,1.453,23.339,4.353c7.146,2.903,12.895,6.783,17.247,11.644v21.979H254.87z"/>
	<path fill="#999999" d="M297.089,129.271h-9.357v-14.145h9.357V129.271z"/>
	<path fill="#999999" d="M362.052,138.957c0,12.114-2.72,21.454-8.16,28.021c-5.44,6.564-13.058,9.849-22.85,9.849
		c-2.175,0-4.206-0.183-6.095-0.545c-1.885-0.365-3.917-0.908-6.095-1.633l1.413-5.659c1.307,0.436,2.956,0.871,4.951,1.307
		c1.995,0.436,3.937,0.652,5.822,0.652c7.98,0,14.165-2.793,18.554-8.379s6.584-13.457,6.584-23.612V17.411H338.44v-5.876h23.612
		L362.052,138.957L362.052,138.957z M361.397-25.896h-5.876v-14.581h5.876V-25.896z"/>
	<path fill="#999999" d="M473.367,47.337h-5.876V28.294c-3.771-4.206-8.579-7.435-14.418-9.683s-12.605-3.372-20.293-3.372
		c-11.026,0-19.369,2.377-25.028,7.126c-5.659,4.752-8.489,10.248-8.489,16.486c0,6.165,2.394,11.425,7.182,15.778
		s14.291,8.16,28.51,11.425c13.131,3.046,23.086,7.199,29.87,12.459C471.608,83.773,475,91.118,475,100.548
		c0,9.214-3.771,16.685-11.316,22.415c-7.545,5.732-17.556,8.596-30.033,8.596c-8.559,0-16.449-1.38-23.668-4.136
		c-7.219-2.757-13.257-6.564-18.118-11.425V94.996h5.876v17.736c4.28,4.569,9.576,7.873,15.887,9.902
		c6.311,2.032,12.985,3.046,20.021,3.046c10.88,0,19.515-2.54,25.896-7.618c6.384-5.078,9.576-10.953,9.576-17.627
		c0-6.238-2.667-11.914-7.997-17.028c-5.333-5.114-14.634-9.121-27.911-12.024c-13.856-2.9-23.958-6.764-30.305-11.588
		s-9.52-11.734-9.52-20.729c0-8.416,3.555-15.469,10.664-21.164s16.685-8.542,28.726-8.542c8.416,0,16.196,1.453,23.339,4.353
		c7.146,2.903,12.895,6.783,17.247,11.644v21.979H473.367z"/>
	<g>
		<path fill="#E71800" d="M143.04-49.426L143-47.656c-0.138,1.984-0.646,5.432-2.4,9.315c0.554-2.588,0.846-5.271,0.846-8.028
			c0-2.06-0.163-4.08-0.478-6.05c-2.568-16.152-15.252-28.92-31.339-31.572c-1.914-0.461-3.049-0.509-3.049-0.509
			c0.039,0.048,0.079,0.096,0.118,0.143c6.716,8.031,7.505,16.449,6.424,22.44c-0.388,2.15-1.017,3.987-1.7,5.378
			c0,0,0.57-2.369,0.517-5.058c-0.051-2.422-0.607-5.106-2.551-6.561c0.596,3.127-0.129,5.701-1.551,8.124
			c-4.209,7.157-14.539,12.532-15.39,25.809v0.652c0,9.138,4.361,16.846,11.695,21.277c-1.166-2.102-2.546-5.991-1.486-10.237
			c0.68,4.029,1.694,6.134,3.555,8.809c1.388,1.995,3.251,3.279,5.631,4.243c2.38,0.964,4.943,1.225,7.817,1.225
			c9.498,0,17.908-4.861,22.78-12.246l0.045,0.011l0,0c2.723-4.299,4.442-9.444,4.442-14.98
			C146.926-40.572,145.479-45.344,143.04-49.426z"/>
	</g>
</g>
</svg>
